HIERARCHY
ROOT Hips
{
  OFFSET 5.84602e-005 68.8428 3.50346
  CHANNELS 6 Xposition Yposition Zposition Zrotation Xrotation Yrotation
  JOINT Spine
  {
    OFFSET 0 8.597 -4.6522
    CHANNELS 3 Zrotation Xrotation Yrotation
    JOINT Spine1
    {
      OFFSET 0 7.8454 0.4098
      CHANNELS 3 Zrotation Xrotation Yrotation
      JOINT Spine2
      {
        OFFSET 0 9.7078 -2.1609
        CHANNELS 3 Zrotation Xrotation Yrotation
        JOINT Neck
        {
          OFFSET 0 21.8761 -0.4549
          CHANNELS 3 Zrotation Xrotation Yrotation
          JOINT Head
          {
            OFFSET 0 12.3537 3.3602
            CHANNELS 3 Zrotation Xrotation Yrotation
            End Site
            {
              OFFSET 0.0001 18.9506 0.5657
            }
          }
        }
        JOINT LeftShoulder
        {
          OFFSET 2.2086 21.1115 7.2329
          CHANNELS 3 Zrotation Xrotation Yrotation
          JOINT LeftArm
          {
            OFFSET 13.1193 3.0282 -4.8998
            CHANNELS 3 Zrotation Xrotation Yrotation
            JOINT LeftForeArm
            {
              OFFSET 27.4081 -0.0973053 -0.2375
              CHANNELS 3 Zrotation Xrotation Yrotation
              JOINT LeftHand
              {
                OFFSET 22.8641 0.0662994 -0.1369
                CHANNELS 3 Zrotation Xrotation Yrotation
                JOINT LeftHandIndex1
                {
                  OFFSET 8.8614 0.775009 2.4612
                  CHANNELS 3 Zrotation Xrotation Yrotation
                  JOINT LeftHandIndex2
                  {
                    OFFSET 3.3146 -0.808304 0.5841
                    CHANNELS 3 Zrotation Xrotation Yrotation
                    JOINT LeftHandIndex3
                    {
                      OFFSET 2.2628 -0.552002 0.3989
                      CHANNELS 3 Zrotation Xrotation Yrotation
                      End Site
                      {
                        OFFSET 1.6102 -0.4807 0.2612
                      }
                    }
                  }
                }
                JOINT LeftHandMiddle1
                {
                  OFFSET 8.9937 0.895004 0.2143
                  CHANNELS 3 Zrotation Xrotation Yrotation
                  JOINT LeftHandMiddle2
                  {
                    OFFSET 4.0984 0.0113983 -0.0242
                    CHANNELS 3 Zrotation Xrotation Yrotation
                    JOINT LeftHandMiddle3
                    {
                      OFFSET 2.2716 0.00689697 -0.0138001
                      CHANNELS 3 Zrotation Xrotation Yrotation
                      End Site
                      {
                        OFFSET 2.0404 -0.1441 0.0027
                      }
                    }
                  }
                }
                JOINT LeftHandRing1
                {
                  OFFSET 8.5234 0.597198 -2.0164
                  CHANNELS 3 Zrotation Xrotation Yrotation
                  JOINT LeftHandRing2
                  {
                    OFFSET 3.7188 -0.188293 -0.2328
                    CHANNELS 3 Zrotation Xrotation Yrotation
                    JOINT LeftHandRing3
                    {
                      OFFSET 2.1191 -0.106598 -0.1332
                      CHANNELS 3 Zrotation Xrotation Yrotation
                      End Site
                      {
                        OFFSET 1.8737 -0.2304 -0.0886
                      }
                    }
                  }
                }
                JOINT LeftHandPinky1
                {
                  OFFSET 7.9094 -0.601089 -3.4825
                  CHANNELS 3 Zrotation Xrotation Yrotation
                  JOINT LeftHandPinky2
                  {
                    OFFSET 2.2874 -0.477005 -0.6314
                    CHANNELS 3 Zrotation Xrotation Yrotation
                    JOINT LeftHandPinky3
                    {
                      OFFSET 1.6774 -0.349396 -0.4633
                      CHANNELS 3 Zrotation Xrotation Yrotation
                      End Site
                      {
                        OFFSET 1.4888 -0.4091 -0.3416
                      }
                    }
                  }
                }
                JOINT LeftHandThumb1
                {
                  OFFSET 1.833 -1.3875 1.3896
                  CHANNELS 3 Zrotation Xrotation Yrotation
                  JOINT LeftHandThumb2
                  {
                    OFFSET 3.4129 -1.121 2.5732
                    CHANNELS 3 Zrotation Xrotation Yrotation
                    JOINT LeftHandThumb3
                    {
                      OFFSET 2.2474 -0.804199 1.6192
                      CHANNELS 3 Zrotation Xrotation Yrotation
                      End Site
                      {
                        OFFSET 1.6527 -0.5689 1.1317
                      }
                    }
                  }
                }
              }
            }
          }
        }
        JOINT RightShoulder
        {
          OFFSET -2.2086 21.1115 7.2329
          CHANNELS 3 Zrotation Xrotation Yrotation
          JOINT RightArm
          {
            OFFSET -13.1216 3.0287 -4.9007
            CHANNELS 3 Zrotation Xrotation Yrotation
            JOINT RightForeArm
            {
              OFFSET -27.4081 -0.0973053 -0.2375
              CHANNELS 3 Zrotation Xrotation Yrotation
              JOINT RightHand
              {
                OFFSET -22.8641 0.0664063 -0.1369
                CHANNELS 3 Zrotation Xrotation Yrotation
                JOINT RightHandIndex1
                {
                  OFFSET -8.8614 0.774994 2.4612
                  CHANNELS 3 Zrotation Xrotation Yrotation
                  JOINT RightHandIndex2
                  {
                    OFFSET -3.3146 -0.808304 0.5841
                    CHANNELS 3 Zrotation Xrotation Yrotation
                    JOINT RightHandIndex3
                    {
                      OFFSET -2.2628 -0.552002 0.3989
                      CHANNELS 3 Zrotation Xrotation Yrotation
                      End Site
                      {
                        OFFSET -1.6102 -0.4807 0.2612
                      }
                    }
                  }
                }
                JOINT RightHandMiddle1
                {
                  OFFSET -8.9937 0.894989 0.2143
                  CHANNELS 3 Zrotation Xrotation Yrotation
                  JOINT RightHandMiddle2
                  {
                    OFFSET -4.0984 0.0113983 -0.0242
                    CHANNELS 3 Zrotation Xrotation Yrotation
                    JOINT RightHandMiddle3
                    {
                      OFFSET -2.2716 0.00691223 -0.0138001
                      CHANNELS 3 Zrotation Xrotation Yrotation
                      End Site
                      {
                        OFFSET -2.0404 -0.1441 0.0027
                      }
                    }
                  }
                }
                JOINT RightHandRing1
                {
                  OFFSET -8.5234 0.597198 -2.0164
                  CHANNELS 3 Zrotation Xrotation Yrotation
                  JOINT RightHandRing2
                  {
                    OFFSET -3.7188 -0.188309 -0.2328
                    CHANNELS 3 Zrotation Xrotation Yrotation
                    JOINT RightHandRing3
                    {
                      OFFSET -2.1191 -0.106598 -0.1332
                      CHANNELS 3 Zrotation Xrotation Yrotation
                      End Site
                      {
                        OFFSET -1.8737 -0.2304 -0.0886
                      }
                    }
                  }
                }
                JOINT RightHandPinky1
                {
                  OFFSET -7.9094 -0.601105 -3.4825
                  CHANNELS 3 Zrotation Xrotation Yrotation
                  JOINT RightHandPinky2
                  {
                    OFFSET -2.2874 -0.477005 -0.6314
                    CHANNELS 3 Zrotation Xrotation Yrotation
                    JOINT RightHandPinky3
                    {
                      OFFSET -1.6774 -0.349396 -0.4633
                      CHANNELS 3 Zrotation Xrotation Yrotation
                      End Site
                      {
                        OFFSET -1.4888 -0.4091 -0.3416
                      }
                    }
                  }
                }
                JOINT RightHandThumb1
                {
                  OFFSET -1.833 -1.38751 1.3896
                  CHANNELS 3 Zrotation Xrotation Yrotation
                  JOINT RightHandThumb2
                  {
                    OFFSET -3.41299 -1.12099 2.5732
                    CHANNELS 3 Zrotation Xrotation Yrotation
                    JOINT RightHandThumb3
                    {
                      OFFSET -2.24741 -0.804108 1.6192
                      CHANNELS 3 Zrotation Xrotation Yrotation
                      End Site
                      {
                        OFFSET -1.6527 -0.5689 1.1317
                      }
                    }
                  }
                }
              }
            }
          }
        }
      }
    }
  }
  JOINT RightUpLeg
  {
    OFFSET -9.1966 3.8861 -0.7581
    CHANNELS 3 Zrotation Xrotation Yrotation
    JOINT RightLeg
    {
      OFFSET -0.7359 -41.0265 0
      CHANNELS 3 Zrotation Xrotation Yrotation
      JOINT RightFoot
      {
        OFFSET 0 -40.2855 0
        CHANNELS 3 Zrotation Xrotation Yrotation
        JOINT RightToeBase
        {
          OFFSET 0 -5.6122 11.7359
          CHANNELS 3 Zrotation Xrotation Yrotation
          End Site
          {
            OFFSET 0 0 7.8731
          }
        }
      }
    }
  }
  JOINT LeftUpLeg
  {
    OFFSET 9.1965 3.8864 -0.7581
    CHANNELS 3 Zrotation Xrotation Yrotation
    JOINT LeftLeg
    {
      OFFSET 0.7359 -41.0268 0
      CHANNELS 3 Zrotation Xrotation Yrotation
      JOINT LeftFoot
      {
        OFFSET 0 -40.2855 0
        CHANNELS 3 Zrotation Xrotation Yrotation
        JOINT LeftToeBase
        {
          OFFSET 0 -5.6122 11.7359
          CHANNELS 3 Zrotation Xrotation Yrotation
          End Site
          {
            OFFSET 0 0 7.8731
          }
        }
      }
    }
  }
}
MOTION
Frames:	4
Frame Time:	0.0333333
5.84602e-005 68.8428 3.50346 0 0 -0 0 0 -0 0 0 -0 0 0 -0 0 0 -0 0 0 -0 0 0 -0 0 0 -0 0 0 -0 0 0 -0 0 0 -0 0 0 -0 0 0 -0 0 0 -0 -0.0146107 -8.87603e-005 -2.63497e-007 2.99804e-018 -2.42657e-020 -1.42182e-022 0 0 -0 -0.0187562 -0.001176 5.858e-005 5.06224e-018 3.88251e-019 1.21329e-020 0 0 -0 -0.012269 -0.00324817 0.000675346 -1.74678e-018 3.88251e-019 -0 0 0 -0 0 0 -0 0 0 -0 0 0 -0 0 0 -0 0 0 -0 0 0 -0 0 0 -0 0 0 -0 0 0 -0 0 0 -0 0.0149955 -9.10982e-005 2.64101e-007 -9.69331e-018 1.21329e-020 -4.7394e-023 0 0 -0 0.0189956 -0.00119102 -5.96516e-005 -5.41541e-019 0 2.42657e-020 0 0 -0 0.0122698 -0.00324857 -0.000673756 -2.00796e-019 0 -1.94126e-019 0 0 -0 0 0 -0 0 0 -0 3.39842 1.33031 -0.0637918 -5.65207e-008 0.834868 -0.000436188 -3.39935 -2.16518 -0.0642563 -8.89002e-024 -1.18485e-023 -1.48106e-024 -3.39844 1.35642 0.0640283 -3.18788e-007 0.782166 -0.000588827 3.39931 -2.13858 0.0634662 1.1399e-023 0 -0 
-4.22072 31.992 15.8842 -86.5745 -59.9424 12.9746 0.940635 14.4889 0.353796 1.88052 28.9815 0.476345 1.88051 28.9815 0.476352 -23.0317 2.76154 1.1715 13.0689 5.84316 -5.35699 -3.99799 0.134398 -1.99521 -88.9676 0.384378 -100.997 -4.24093 2.64846 -121.929 -2.2104 -2.99419 -4.00713 5.96354e-016 -1.59028e-015 -3.18055e-015 1.01857e-007 3.16881e-008 3.1199e-009 3.97569e-016 7.95139e-016 -1.59028e-014 5.96354e-016 -1.59028e-015 -3.18055e-015 -0.0146249 -8.89275e-005 7.01066e-007 4.26839e-008 -9.82412e-009 -7.96053e-007 5.96354e-016 -1.59028e-015 -3.18055e-015 -0.0187585 -0.00117635 5.94259e-005 -1.98785e-016 0 -0 5.96354e-016 -1.59028e-015 -3.18055e-015 -0.0122536 -0.00324353 0.00067814 -1.19271e-015 3.97569e-016 3.18055e-015 5.96354e-016 -1.59028e-015 -3.18055e-015 1.01857e-007 3.16881e-008 3.1199e-009 3.97569e-016 7.95139e-016 -1.59028e-014 2.89758e-005 7.00316e-006 8.31931e-006 45.5805 28.6852 9.12526 25.9235 2.17029 94.5394 36.8147 -2.88856 15.8182 -3.18055e-015 -3.18055e-015 -3.57812e-015 -3.18055e-015 -4.77083e-015 -2.78299e-015 -3.18055e-015 1.59028e-015 -0 -3.18055e-015 -3.18055e-015 -3.57812e-015 0.0150177 -8.91796e-005 1.89005e-006 -4.77083e-015 -1.59028e-015 -1.59028e-015 -3.18055e-015 -3.18055e-015 -3.57812e-015 0.0189645 -0.00118955 -5.94445e-005 -1.59028e-015 1.59028e-015 1.98785e-015 -3.18055e-015 -3.18055e-015 -3.57812e-015 0.0122687 -0.00324674 -0.000671102 -1.59028e-015 -3.18055e-015 7.95139e-016 -3.18055e-015 -3.18055e-015 -3.57812e-015 -3.18055e-015 -4.77083e-015 -2.78299e-015 -3.18055e-015 1.59028e-015 -0 12.1224 -6.08523 -15.2294 178.37 72.3881 179.417 -2.02453 7.07579 -0.787961 -6.4924e-007 -1.03813e-006 1.12441e-006 -2.05119 -3.97379 -7.43047 178.252 69.2676 -175.974 0.915026 26.5123 1.22799 2.45976e-007 2.01362e-006 -2.55642e-007 
-4.22072 31.992 15.8842 -86.5745 -59.9424 12.9746 0.940635 14.4889 0.353796 1.88052 28.9815 0.476345 1.88051 28.9815 0.476352 -23.0317 2.76146 1.17147 13.0689 5.84315 -5.357 -3.99799 0.134397 -1.99521 -88.9676 0.384375 -100.997 -4.24093 2.64846 -121.929 -2.2104 -2.99419 -4.00713 1.01857e-007 3.16881e-008 3.1199e-009 2.01693e-007 1.83294e-009 -3.25629e-006 1.01857e-007 3.16881e-008 3.11986e-009 1.01857e-007 3.16881e-008 3.1199e-009 -0.0146247 -8.86099e-005 3.17129e-006 1.01857e-007 3.16877e-008 3.12388e-009 1.01857e-007 3.16881e-008 3.1199e-009 -0.0187429 -0.00117535 5.66407e-005 1.01857e-007 3.16876e-008 3.12403e-009 1.01857e-007 3.16881e-008 3.1199e-009 -0.012258 -0.00324544 0.000673944 1.01857e-007 3.16872e-008 3.12038e-009 1.01857e-007 3.16881e-008 3.1199e-009 2.01693e-007 1.83294e-009 -3.25629e-006 1.01857e-007 3.16881e-008 3.11986e-009 1.91876e-005 5.28174e-006 7.27227e-006 45.5805 28.6852 9.12526 25.9235 2.17027 94.5394 36.8147 -2.88855 15.8182 -1.59028e-015 0 -3.97569e-016 3.18055e-015 -4.77083e-015 -7.95139e-016 1.10348e-031 -3.18055e-015 1.98785e-015 -1.59028e-015 0 -3.97569e-016 0.0150138 -9.33222e-005 1.42641e-006 -3.18055e-015 1.59028e-015 1.19271e-015 -1.59028e-015 0 -3.97569e-016 0.0189899 -0.00119007 -6.01578e-005 -1.59028e-015 1.59028e-015 1.59028e-015 -1.59028e-015 0 -3.97569e-016 0.0122697 -0.00324456 -0.000676235 -1.59028e-015 1.59028e-015 -0 -1.59028e-015 0 -3.97569e-016 3.18055e-015 -4.77083e-015 -7.95139e-016 1.10348e-031 -3.18055e-015 1.98785e-015 12.1224 -6.08523 -15.2294 178.37 72.3881 179.417 -2.02453 7.07579 -0.787961 -6.4924e-007 -1.03813e-006 1.12441e-006 -2.05119 -3.97442 -7.43046 178.252 69.267 -175.974 0.915069 26.5123 1.22798 7.95139e-016 6.36111e-015 4.96962e-016 
-4.22072 31.992 15.8842 -86.5745 -59.9424 12.9746 0.940635 14.4889 0.353796 1.88052 28.9815 0.476345 1.88051 28.9815 0.476352 -23.0317 2.76146 1.17147 13.0689 5.84315 -5.357 -3.99799 0.134397 -1.99521 -88.9676 0.384375 -100.997 -4.24093 2.64846 -121.929 -2.2104 -2.99419 -4.00713 1.01857e-007 3.16881e-008 3.1199e-009 2.01693e-007 1.83294e-009 -3.25629e-006 1.01857e-007 3.16881e-008 3.11986e-009 1.01857e-007 3.16881e-008 3.1199e-009 -0.0146247 -8.86099e-005 3.17129e-006 1.01857e-007 3.16877e-008 3.12388e-009 1.01857e-007 3.16881e-008 3.1199e-009 -0.0187429 -0.00117535 5.66407e-005 1.01857e-007 3.16876e-008 3.12403e-009 1.01857e-007 3.16881e-008 3.1199e-009 -0.012258 -0.00324544 0.000673944 1.01857e-007 3.16872e-008 3.12038e-009 1.01857e-007 3.16881e-008 3.1199e-009 2.01693e-007 1.83294e-009 -3.25629e-006 1.01857e-007 3.16881e-008 3.11986e-009 1.91876e-005 5.28174e-006 7.27227e-006 45.5805 28.6852 9.12526 25.9235 2.17027 94.5394 36.8147 -2.88855 15.8182 -1.59028e-015 0 -3.97569e-016 3.18055e-015 -4.77083e-015 -7.95139e-016 1.10348e-031 -3.18055e-015 1.98785e-015 -1.59028e-015 0 -3.97569e-016 0.0150138 -9.33222e-005 1.42641e-006 -3.18055e-015 1.59028e-015 1.19271e-015 -1.59028e-015 0 -3.97569e-016 0.0189899 -0.00119007 -6.01578e-005 -1.59028e-015 1.59028e-015 1.59028e-015 -1.59028e-015 0 -3.97569e-016 0.0122697 -0.00324456 -0.000676235 -1.59028e-015 1.59028e-015 -0 -1.59028e-015 0 -3.97569e-016 3.18055e-015 -4.77083e-015 -7.95139e-016 1.10348e-031 -3.18055e-015 1.98785e-015 12.1224 -6.08523 -15.2294 178.37 72.3881 179.417 -2.02453 7.07579 -0.787961 -6.4924e-007 -1.03813e-006 1.12441e-006 -2.05119 -3.97442 -7.43046 178.252 69.267 -175.974 0.915069 26.5123 1.22798 7.95139e-016 6.36111e-015 4.96962e-016 
